<svg width="24" height="24" viewBox="0 0 24 24" fill="none" xmlns="http://www.w3.org/2000/svg">
<g id="phone">
<path id="Vector" d="M8.11037 2.73786C8.11037 2.73786 7.8085 2 7.34745 2C6.89373 2 6.65771 2.21859 6.50037 2.36941C6.34303 2.52023 3.71031 4.77773 3.71031 4.77773C3.71031 4.77773 2.94465 5.4755 3.00319 6.788C3.05259 8.1005 3.29867 9.96854 4.57569 12.5706C5.84357 15.167 9.01691 19.1341 11.0221 20.5287C11.0221 20.5287 12.88 22.0159 14.6089 22.6201C15.1111 22.7852 16.1156 23 16.3497 23C16.5876 23 17.0075 23 17.4895 22.6325C17.9799 22.2612 20.7306 19.9531 20.7306 19.9531C20.7306 19.9531 21.4039 19.3183 20.6217 18.5805C19.8359 17.8426 17.4502 16.2017 16.9398 15.7703C16.4284 15.3321 15.7002 15.525 15.3856 15.8218C15.0718 16.1206 14.511 16.6122 14.4424 16.6742C14.34 16.7563 14.0591 17.0226 13.7445 16.89C13.3438 16.7248 11.7009 15.7941 10.1778 13.6197C8.66381 11.4471 8.49732 10.737 8.27137 9.9695C8.23305 9.85605 8.23253 9.73242 8.26988 9.61862C8.30723 9.50482 8.38027 9.40748 8.4772 9.34236C8.70406 9.17818 9.53925 8.45177 9.53925 8.45177C9.53925 8.45177 10.0799 7.89527 9.85393 7.2395C9.62798 6.58373 8.11037 2.73786 8.11037 2.73786Z" fill="#FAB130"/>
</g>
</svg>
