<svg width="24" height="24" viewBox="0 0 24 24" fill="none" xmlns="http://www.w3.org/2000/svg">
<g id="phone">
<path id="Vector" d="M8.36966 3.07452C8.36966 3.07452 8.08791 2.3999 7.6576 2.3999C7.23412 2.3999 7.01384 2.59976 6.86699 2.73765C6.72014 2.87554 4.26294 4.93954 4.26294 4.93954C4.26294 4.93954 3.54831 5.5775 3.60296 6.7775C3.64906 7.9775 3.87873 9.68543 5.07062 12.0645C6.25397 14.4383 9.21576 18.0654 11.0873 19.3404C11.0873 19.3404 12.8213 20.7001 14.435 21.2526C14.9037 21.4035 15.8412 21.5999 16.0597 21.5999C16.2817 21.5999 16.6736 21.5999 17.1236 21.2639C17.5812 20.9244 20.1485 18.8142 20.1485 18.8142C20.1485 18.8142 20.7769 18.2338 20.0469 17.5592C19.3135 16.8846 17.0868 15.3843 16.6104 14.9899C16.1332 14.5893 15.4535 14.7656 15.1598 15.037C14.867 15.3102 14.3436 15.7596 14.2796 15.8163C14.184 15.8914 13.9218 16.1349 13.6281 16.0136C13.2542 15.8626 11.7208 15.0117 10.2992 13.0236C8.8862 11.0373 8.73081 10.388 8.51993 9.6863C8.48416 9.58257 8.48367 9.46955 8.51853 9.3655C8.55339 9.26145 8.62156 9.17246 8.71203 9.11292C8.92377 8.96281 9.70328 8.29867 9.70328 8.29867C9.70328 8.29867 10.2079 7.78987 9.99698 7.1903C9.78609 6.59074 8.36966 3.07452 8.36966 3.07452Z" fill="url(#paint0_linear_2533_20147)"/>
</g>
<defs>
<linearGradient id="paint0_linear_2533_20147" x1="11.1434" y1="1.01324" x2="-14.0464" y2="13.4273" gradientUnits="userSpaceOnUse">
<stop stop-color="#29817A"/>
<stop offset="1" stop-color="#0D1457"/>
</linearGradient>
</defs>
</svg>
