<svg width="48" height="48" viewBox="0 0 48 48" fill="none" xmlns="http://www.w3.org/2000/svg">
<g id="bxs:file-doc">
<path id="Vector" d="M24.372 29.104C23.138 29.104 22.418 30.278 22.418 31.85C22.418 33.432 23.16 34.55 24.384 34.55C25.618 34.55 26.326 33.374 26.326 31.802C26.326 30.35 25.63 29.104 24.372 29.104Z" fill="url(#paint0_linear_2781_34184)"/>
<path id="Vector_2" d="M28 4H12C10.9391 4 9.92172 4.42143 9.17157 5.17157C8.42143 5.92172 8 6.93913 8 8V40C8 41.0609 8.42143 42.0783 9.17157 42.8284C9.92172 43.5786 10.9391 44 12 44H36C37.0609 44 38.0783 43.5786 38.8284 42.8284C39.5786 42.0783 40 41.0609 40 40V16L28 4ZM18.31 34.908C17.458 35.616 16.164 35.95 14.582 35.95C13.632 35.95 12.962 35.89 12.506 35.83V27.888C13.3238 27.769 14.1496 27.7135 14.976 27.722C16.512 27.722 17.508 27.998 18.286 28.586C19.126 29.21 19.654 30.206 19.654 31.63C19.654 33.18 19.09 34.248 18.31 34.908ZM24.29 36C21.89 36 20.488 34.188 20.488 31.884C20.488 29.462 22.034 27.652 24.422 27.652C26.904 27.652 28.26 29.51 28.26 31.742C28.258 34.392 26.65 36 24.29 36ZM33.6 34.476C34.15 34.476 34.762 34.354 35.124 34.212L35.4 35.638C35.064 35.806 34.308 35.986 33.326 35.986C30.532 35.986 29.092 34.248 29.092 31.944C29.092 29.186 31.058 27.652 33.506 27.652C34.454 27.652 35.172 27.844 35.496 28.012L35.124 29.464C34.6367 29.2638 34.1148 29.1619 33.588 29.164C32.136 29.164 31.008 30.04 31.008 31.84C31.008 33.458 31.968 34.476 33.6 34.476ZM28 18H26V8L36 18H28Z" fill="url(#paint1_linear_2781_34184)"/>
<path id="Vector_3" d="M15.1678 29.126C14.7618 29.126 14.4978 29.162 14.3418 29.198V34.488C14.4978 34.524 14.7498 34.524 14.9758 34.524C16.6318 34.536 17.7098 33.626 17.7098 31.694C17.7218 30.014 16.7398 29.126 15.1678 29.126Z" fill="url(#paint2_linear_2781_34184)"/>
</g>
<defs>
<linearGradient id="paint0_linear_2781_34184" x1="24.1727" y1="28.7107" x2="17.9125" y2="31.2408" gradientUnits="userSpaceOnUse">
<stop stop-color="#29817A"/>
<stop offset="1" stop-color="#0D1457"/>
</linearGradient>
<linearGradient id="paint1_linear_2781_34184" x1="22.3685" y1="1.11111" x2="-27.2015" y2="23.4464" gradientUnits="userSpaceOnUse">
<stop stop-color="#29817A"/>
<stop offset="1" stop-color="#0D1457"/>
</linearGradient>
<linearGradient id="paint2_linear_2781_34184" x1="15.8541" y1="28.7361" x2="10.2674" y2="30.6994" gradientUnits="userSpaceOnUse">
<stop stop-color="#29817A"/>
<stop offset="1" stop-color="#0D1457"/>
</linearGradient>
</defs>
</svg>
