<svg width="24" height="24" viewBox="0 0 24 24" fill="none" xmlns="http://www.w3.org/2000/svg">
<path d="M16.1479 4H14.0767C11.5612 4 9.93675 5.566 9.93675 7.99037V9.54062H7.85213C7.6575 9.54062 7.5 9.68912 7.5 9.8725V12.5387C7.5 12.7221 7.6575 12.8695 7.85213 12.8695H9.93675L9.93675 19.4204C9.93675 19.6026 10.0943 19.7511 10.2878 19.7511H13.224C13.4198 19.7511 13.5773 19.6026 13.5773 19.4204L13.5773 12.8684L16.1467 12.8684C16.3414 12.8684 16.4989 12.721 16.4989 12.5376L16.5 9.8725C16.4995 9.82868 16.4901 9.78542 16.4723 9.74538C16.4545 9.70533 16.4287 9.66935 16.3965 9.63962C16.3291 9.57661 16.2402 9.54162 16.1479 9.54175H13.5773V8.2705C13.5773 7.52125 13.7674 7.141 14.8069 7.141L16.1479 7.1365C16.3414 7.1365 16.4989 6.98912 16.4989 6.80575V4.33075C16.5 4.1485 16.3425 4 16.1479 4Z" fill="#666666"/>
</svg>
