<svg width="110" height="12" viewBox="0 0 110 12" fill="none" xmlns="http://www.w3.org/2000/svg">
<g id="IMarketing &#208;&#187;&#208;&#190;&#208;&#179;&#208;&#190;&#209;&#130;&#208;&#184;&#208;&#191;" clip-path="url(#clip0_2627_27075)">
<g id="&#208;&#161;&#208;&#187;&#208;&#190;&#208;&#185; 2">
<g id="&#209;&#129;&#208;&#176;&#208;&#188; &#208;&#187;&#208;&#190;&#208;&#179;&#208;&#190;&#209;&#130;&#208;&#184;&#208;&#191;">
<g id="&#209;&#130;&#208;&#181;&#208;&#186;&#209;&#129;&#209;&#130;">
<path id="Vector" fill-rule="evenodd" clip-rule="evenodd" d="M27.8047 1.87908L23.8142 10.5625H24.4747L25.5542 8.14798H30.6075L31.6954 10.5597H32.3947L28.4041 1.87628L27.8047 1.87908ZM25.8317 7.56255L28.0989 2.57936L30.3495 7.56255H25.8317ZM44.147 4.38328C44.1501 4.08332 44.0946 3.78569 43.9836 3.5074C43.8727 3.22912 43.7085 2.97563 43.5004 2.76143C42.9871 2.24602 42.1462 1.92109 41.0945 1.92109H37.5091V10.5205H38.1446V6.95751H40.9418L43.6642 10.5205H44.4717L41.6495 6.84546C43.0897 6.64938 44.147 5.82585 44.147 4.38888V4.38328ZM38.139 6.37487V2.52053H41.0584C42.6096 2.52053 43.5143 3.24602 43.5143 4.40008C43.5143 5.66619 42.4515 6.39168 41.0168 6.39168L38.139 6.37487ZM56.5043 1.91829H55.6385L50.1911 7.56255V1.91829H49.5556V10.5205H50.1911V8.33286L52.3168 6.16199L55.8328 10.5121H56.6653L52.7802 5.70821L56.5043 1.91829ZM72.9438 2.52053H75.9242V10.5317H76.5596V2.52053H79.5373V1.91829H72.9438V2.52053ZM84.6462 10.5317H85.2816V1.91829H84.6462V10.5317ZM96.8897 9.41129L90.9899 1.91829H90.3905V10.5205H91.001V2.87628L97.0229 10.5205H97.5002V1.91829H96.8897V9.41129ZM106.641 6.04994V6.61017H109.416V9.01073C108.669 9.61999 107.74 9.95659 106.78 9.96591C104.56 9.96591 103.233 8.35527 103.233 6.1928C103.233 4.15079 104.64 2.4337 106.65 2.4337C107.632 2.39944 108.588 2.76008 109.308 3.4365L109.71 2.97151C108.88 2.22595 107.797 1.83174 106.686 1.87067C104.216 1.87067 102.595 3.9379 102.595 6.1928C102.595 8.56815 104.144 10.5149 106.758 10.5149C107.956 10.5057 109.111 10.0601 110.01 9.26003V6.04434L106.641 6.04994ZM61.752 2.53454H67.8571V1.91549H61.752V2.53454ZM65.9895 5.9323H61.752V6.54574H65.9895V5.9323ZM61.752 10.5205H67.8571V9.90709H61.752V10.5205Z" fill="#B1B1B1"/>
</g>
<g id="IM 1">
<path id="Vector_2" fill-rule="evenodd" clip-rule="evenodd" d="M15.0144 0L12.1894 4.88515L9.37822 0H5.97046V7.2577C7.02557 8.19908 8.16658 9.03755 9.37822 9.7619V6.16247L12.0367 10.6443H12.342L15.0144 6.16247V12H18.4055V0H15.0144Z" fill="#B1B1B1"/>
</g>
<g id="IM 1 &#208;&#186;&#208;&#190;&#208;&#191;&#208;&#184;&#209;&#143;">
<path id="Vector_3" fill-rule="evenodd" clip-rule="evenodd" d="M4.26494 5.53221V0H0.857178C1.674 2.02583 2.82637 3.8966 4.26494 5.53221Z" fill="#B1B1B1"/>
</g>
<g id="IM 2">
<path id="Vector_4" fill-rule="evenodd" clip-rule="evenodd" d="M0.857178 6.9635V12.0055H4.26494V9.33605C3.0686 8.63749 1.9291 7.84414 0.857178 6.9635H0.857178Z" fill="#B1B1B1"/>
</g>
<g id="IM 2 &#208;&#186;&#208;&#190;&#208;&#191;&#208;&#184;&#209;&#143;">
<path id="Vector_5" fill-rule="evenodd" clip-rule="evenodd" d="M5.97046 10.2463V11.9998H9.37822V11.6217C8.21201 11.2438 7.07332 10.7842 5.97046 10.2463Z" fill="#B1B1B1"/>
</g>
</g>
</g>
</g>
<defs>
<clipPath id="clip0_2627_27075">
<rect width="109.143" height="12" fill="white" transform="translate(0.857178)"/>
</clipPath>
</defs>
</svg>
