<svg width="20" height="20" viewBox="0 0 20 20" fill="none" xmlns="http://www.w3.org/2000/svg">
<g id="basil:instagram-solid">
<path id="Vector" d="M10.0013 7.29175C9.28301 7.29175 8.59413 7.57709 8.08622 8.085C7.57831 8.59291 7.29297 9.28179 7.29297 10.0001C7.29297 10.7184 7.57831 11.4073 8.08622 11.9152C8.59413 12.4231 9.28301 12.7084 10.0013 12.7084C10.7196 12.7084 11.4085 12.4231 11.9164 11.9152C12.4243 11.4073 12.7096 10.7184 12.7096 10.0001C12.7096 9.28179 12.4243 8.59291 11.9164 8.085C11.4085 7.57709 10.7196 7.29175 10.0013 7.29175Z" fill="url(#paint0_linear_3266_71093)"/>
<path id="Vector_2" fill-rule="evenodd" clip-rule="evenodd" d="M5.64152 2.56831C8.53822 2.24741 11.4615 2.24741 14.3582 2.56831C15.9407 2.74497 17.2165 3.99081 17.4024 5.57914C17.7456 8.51637 17.7456 11.4836 17.4024 14.4208C17.2165 16.0091 15.9407 17.255 14.359 17.4325C11.4621 17.7534 8.53849 17.7534 5.64152 17.4325C4.05902 17.255 2.78319 16.0091 2.59735 14.4216C2.25401 11.4841 2.25401 8.51664 2.59735 5.57914C2.78319 3.99081 4.05902 2.74497 5.64152 2.56831ZM14.1665 4.99997C13.9455 4.99997 13.7335 5.08777 13.5773 5.24405C13.421 5.40033 13.3332 5.61229 13.3332 5.83331C13.3332 6.05432 13.421 6.26628 13.5773 6.42256C13.7335 6.57884 13.9455 6.66664 14.1665 6.66664C14.3875 6.66664 14.5995 6.57884 14.7558 6.42256C14.9121 6.26628 14.9999 6.05432 14.9999 5.83331C14.9999 5.61229 14.9121 5.40033 14.7558 5.24405C14.5995 5.08777 14.3875 4.99997 14.1665 4.99997ZM6.04152 9.99997C6.04152 8.95016 6.45856 7.94334 7.20089 7.20101C7.94322 6.45868 8.95004 6.04164 9.99985 6.04164C11.0497 6.04164 12.0565 6.45868 12.7988 7.20101C13.5412 7.94334 13.9582 8.95016 13.9582 9.99997C13.9582 11.0498 13.5412 12.0566 12.7988 12.7989C12.0565 13.5413 11.0497 13.9583 9.99985 13.9583C8.95004 13.9583 7.94322 13.5413 7.20089 12.7989C6.45856 12.0566 6.04152 11.0498 6.04152 9.99997Z" fill="url(#paint1_linear_3266_71093)"/>
</g>
<defs>
<linearGradient id="paint0_linear_3266_71093" x1="9.72514" y1="6.90054" x2="2.06185" y2="11.2167" gradientUnits="userSpaceOnUse">
<stop stop-color="#29817A"/>
<stop offset="0.654" stop-color="#0D1457"/>
</linearGradient>
<linearGradient id="paint1_linear_3266_71093" x1="9.21876" y1="1.21935" x2="-12.4728" y2="13.4162" gradientUnits="userSpaceOnUse">
<stop stop-color="#29817A"/>
<stop offset="0.654" stop-color="#0D1457"/>
</linearGradient>
</defs>
</svg>
