<svg width="24" height="24" viewBox="0 0 24 24" fill="none" xmlns="http://www.w3.org/2000/svg">
<g id="telegram">
<path id="coolicon" d="M8.69048 20C6.79353 20 5.08335 18.8573 4.3573 17.1048C3.63124 15.3523 4.03228 13.335 5.37342 11.9934L7.36403 10.0028L8.69048 11.3293L6.70081 13.3189C5.9898 14.0299 5.71212 15.0663 5.97237 16.0375C6.23261 17.0088 6.99125 17.7674 7.96251 18.0277C8.93376 18.2879 9.97008 18.0102 10.6811 17.2992L12.6708 15.3095L13.9972 16.6369L12.0075 18.6266C11.1296 19.5089 9.93518 20.0034 8.69048 20ZM9.3537 15.9728L8.02726 14.6463L14.6604 8.01314L15.9869 9.33959L9.3537 15.9728ZM16.651 13.9831L15.3237 12.6566L17.3133 10.667C18.034 9.95809 18.3191 8.91713 18.0603 7.93995C17.8014 6.96276 17.0383 6.19949 16.0612 5.94039C15.0841 5.68129 14.043 5.96616 13.334 6.68669L11.3434 8.67636L10.0169 7.34991L12.0075 5.3593C13.8416 3.54126 16.8002 3.54774 18.6262 5.37379C20.4523 7.19984 20.4587 10.1585 18.6407 11.9925L16.651 13.9831Z" fill="#666666"/>
</g>
</svg>
