<svg width="20" height="20" viewBox="0 0 20 20" fill="none" xmlns="http://www.w3.org/2000/svg">
<g id="tabler:mail-filled">
<g id="Group">
<path id="Vector" d="M18.3334 6.27917V14.1667C18.3335 14.8044 18.0898 15.4179 17.6523 15.8819C17.2149 16.3458 16.6167 16.6251 15.9801 16.6625L15.8334 16.6667H4.16675C3.52907 16.6667 2.91549 16.4231 2.45153 15.9856C1.98758 15.5481 1.70833 14.9499 1.67091 14.3133L1.66675 14.1667V6.27917L9.53758 11.5267L9.63425 11.5817C9.74817 11.6373 9.87329 11.6663 10.0001 11.6663C10.1269 11.6663 10.252 11.6373 10.3659 11.5817L10.4626 11.5267L18.3334 6.27917Z" fill="url(#paint0_linear_2842_36115)"/>
<path id="Vector_2" d="M15.8334 3.33337C16.7334 3.33337 17.5226 3.80837 17.9626 4.52254L10.0001 9.83087L2.0376 4.52254C2.24659 4.18323 2.53367 3.89879 2.87491 3.69295C3.21614 3.48711 3.60164 3.36582 3.99926 3.33921L4.16676 3.33337H15.8334Z" fill="url(#paint1_linear_2842_36115)"/>
</g>
</g>
<defs>
<linearGradient id="paint0_linear_2842_36115" x1="9.15035" y1="5.52897" x2="-7.94658" y2="20.9793" gradientUnits="userSpaceOnUse">
<stop stop-color="#29817A"/>
<stop offset="1" stop-color="#0D1457"/>
</linearGradient>
<linearGradient id="paint1_linear_2842_36115" x1="9.18818" y1="2.86411" x2="-1.0256" y2="16.9636" gradientUnits="userSpaceOnUse">
<stop stop-color="#29817A"/>
<stop offset="1" stop-color="#0D1457"/>
</linearGradient>
</defs>
</svg>
