<svg width="24" height="24" viewBox="0 0 24 24" fill="none" xmlns="http://www.w3.org/2000/svg">
<path d="M12.5 2C8.35813 2 5 5.52603 5 9.875C5 11.5875 5.53469 13.1589 6.42344 14.4458C6.43938 14.4766 6.44187 14.5111 6.46 14.5406L11.46 22.4156C11.6919 22.7808 12.0825 23 12.5 23C12.9175 23 13.3081 22.7808 13.54 22.4156L18.54 14.5406C18.5584 14.5111 18.5606 14.4766 18.5766 14.4458C19.4653 13.1589 20 11.5875 20 9.875C20 5.52603 16.6419 2 12.5 2ZM12.5 12.5C11.1194 12.5 10 11.3247 10 9.875C10 8.42534 11.1194 7.25 12.5 7.25C13.8806 7.25 15 8.42534 15 9.875C15 11.3247 13.8806 12.5 12.5 12.5Z" fill="#FAB130"/>
</svg>
