<svg width="20" height="20" viewBox="0 0 20 20" fill="none" xmlns="http://www.w3.org/2000/svg">
<g id="location-pin-svgrepo-com 1">
<path id="Vector" d="M10.5 1C6.91038 1 4 4.02231 4 7.75C4 9.21784 4.4634 10.5647 5.23365 11.6678C5.24746 11.6943 5.24963 11.7238 5.26533 11.7491L9.59867 18.4991C9.79963 18.8121 10.1382 19 10.5 19C10.8618 19 11.2004 18.8121 11.4013 18.4991L15.7347 11.7491C15.7506 11.7238 15.7525 11.6943 15.7664 11.6678C16.5366 10.5647 17 9.21784 17 7.75C17 4.02231 14.0896 1 10.5 1ZM10.5 10C9.30346 10 8.33333 8.99256 8.33333 7.75C8.33333 6.50744 9.30346 5.5 10.5 5.5C11.6965 5.5 12.6667 6.50744 12.6667 7.75C12.6667 8.99256 11.6965 10 10.5 10Z" fill="url(#paint0_linear_3266_71074)"/>
</g>
<defs>
<linearGradient id="paint0_linear_3266_71074" x1="9.83721" y1="-0.3" x2="-10.9495" y2="8.15551" gradientUnits="userSpaceOnUse">
<stop stop-color="#29817A"/>
<stop offset="0.654" stop-color="#0D1457"/>
</linearGradient>
</defs>
</svg>
