<svg width="20" height="20" viewBox="0 0 20 20" fill="none" xmlns="http://www.w3.org/2000/svg">
<g id="f7:doc-text-fill">
<path id="Vector" d="M5.55594 18.9733H14.4452C16.1781 18.9733 17.0402 18.0944 17.0402 16.3533V8.75293H10.9799C9.90844 8.75293 9.4063 8.24221 9.4063 7.17078V1.02686H5.55594C3.83165 1.02686 2.96094 1.914 2.96094 3.65543V16.3533C2.96094 18.1026 3.83165 18.9733 5.55594 18.9733ZM11.0052 7.60614H16.9481C16.8895 7.26293 16.6467 6.92793 16.2534 6.51793L11.6327 1.82221C11.2477 1.42043 10.8963 1.17757 10.5445 1.11864V7.15436C10.5445 7.45543 10.7038 7.60614 11.0052 7.60614ZM6.77808 12.3776C6.43487 12.3776 6.19201 12.1347 6.19201 11.8083C6.19201 11.4815 6.43487 11.239 6.77772 11.239H13.2313C13.5663 11.239 13.8259 11.4819 13.8259 11.8079C13.8259 12.1347 13.5663 12.3772 13.2317 12.3772L6.77808 12.3776ZM6.77808 15.5665C6.43487 15.5665 6.19201 15.3236 6.19201 14.9972C6.19201 14.6708 6.43487 14.4279 6.77772 14.4279H13.2313C13.5663 14.4279 13.8259 14.6708 13.8259 14.9972C13.8259 15.3236 13.5663 15.5665 13.2317 15.5665H6.77808Z" fill="url(#paint0_linear_3093_60521)"/>
</g>
<defs>
<linearGradient id="paint0_linear_3093_60521" x1="9.28276" y1="-0.269276" x2="-12.6689" y2="9.4303" gradientUnits="userSpaceOnUse">
<stop stop-color="#29817A"/>
<stop offset="1" stop-color="#0D1457"/>
</linearGradient>
</defs>
</svg>
