<svg width="36" height="36" viewBox="0 0 36 36" fill="none" xmlns="http://www.w3.org/2000/svg">
<g id="guidance:customs">
<path id="Vector" d="M27.0435 27.0435L34 34M12.4348 11.7391V22.8696M20.7826 11.7391V22.8696M13.1304 11.7391C13.1304 10.8166 13.4969 9.93193 14.1492 9.27963C14.8015 8.62733 15.6862 8.26087 16.6087 8.26087C17.5312 8.26087 18.4159 8.62733 19.0682 9.27963C19.7205 9.93193 20.087 10.8166 20.087 11.7391M16.6087 31.2174C8.54052 31.2174 2 24.6769 2 16.6087C2 8.54052 8.54052 2 16.6087 2C24.6769 2 31.2174 8.54052 31.2174 16.6087C31.2174 24.6769 24.6769 31.2174 16.6087 31.2174ZM24.9565 22.8696H8.26087V22.5217L8.43896 21.4504C8.89716 18.7054 8.89716 15.9033 8.43896 13.1583L8.26087 12.087V11.7391H24.9565V12.087L24.7784 13.1583C24.3202 15.9033 24.3202 18.7054 24.7784 21.4504L24.9565 22.5217V22.8696Z" stroke="white" stroke-width="2.5"/>
</g>
</svg>
