<svg width="36" height="36" viewBox="0 0 36 36" fill="none" xmlns="http://www.w3.org/2000/svg">
<g id="hugeicons:google-doc">
<g id="Group">
<path id="Vector" d="M22.5 3.75V6C22.5 8.121 22.5 9.1815 23.16 9.84C23.817 10.5 24.8775 10.5 27 10.5H29.25" stroke="white" stroke-width="2" stroke-linecap="round" stroke-linejoin="round"/>
<path id="Vector_2" d="M12 16.5H24M12 21H24M12 25.5H18.255M6 24V12C6 7.758 6 5.6355 7.3185 4.3185C8.6355 3 10.758 3 15 3H21.258C21.87 3 22.1775 3 22.4535 3.114C22.728 3.228 22.9455 3.444 23.379 3.879L29.121 9.621C29.556 10.056 29.772 10.272 29.886 10.548C30 10.8225 30 11.13 30 11.742V24C30 28.242 30 30.3645 28.6815 31.6815C27.3645 33 25.242 33 21 33H15C10.758 33 8.6355 33 7.3185 31.6815C6 30.3645 6 28.242 6 24Z" stroke="white" stroke-width="2" stroke-linecap="round" stroke-linejoin="round"/>
</g>
</g>
</svg>
