<svg width="36" height="36" viewBox="0 0 36 36" fill="none" xmlns="http://www.w3.org/2000/svg">
<g id="solar:globus-broken">
<g id="Group">
<path id="Vector" d="M33 14.5305C33 9.9495 31.008 5.832 27.843 3M6 24.843C7.4502 26.4664 9.22707 27.7649 11.2142 28.6537C13.2013 29.5424 15.3537 30.0012 17.5305 30C23.7645 30 29.1375 26.313 31.5855 21" stroke="white" stroke-width="2" stroke-linecap="round"/>
<path id="Vector_2" d="M10.5 6.8295C11.3775 7.6575 13.185 9.924 13.3965 12.3555C13.593 14.628 15.0405 16.4745 17.25 16.5C18.099 16.509 18.9585 15.873 18.9555 14.9925C18.9555 14.7195 18.9105 14.442 18.8445 14.1855C18.7328 13.7921 18.7658 13.3717 18.9375 13.0005C19.623 11.5335 20.973 11.139 22.0425 10.3425C22.5165 9.9885 22.9485 9.6165 23.1405 9.3165C23.6655 8.487 24.1935 6.8295 23.9295 6M28.5 16.5C28.17 17.43 27.9375 19.875 24.2175 19.914C24.2175 19.914 20.925 19.914 19.9365 21.7755C19.146 23.265 19.6065 24.8805 19.9365 25.5" stroke="white" stroke-width="2"/>
<path id="Vector_3" d="M17.9998 33V30M17.9998 33H14.9998M17.9998 33H20.9998M8.9038 20.25C7.63062 18.0438 7.20282 15.45 7.70012 12.9518C8.19741 10.4536 9.58588 8.22136 11.6069 6.6709C13.6279 5.12045 16.1436 4.35752 18.6853 4.52424C21.2271 4.69095 23.6215 5.77595 25.4227 7.5771C27.2238 9.37825 28.3088 11.7727 28.4756 14.3145C28.6423 16.8562 27.8793 19.3719 26.3289 21.3929C24.7784 23.4139 22.5462 24.8024 20.048 25.2997C17.5498 25.797 14.956 25.3692 12.7498 24.096" stroke="white" stroke-width="2" stroke-linecap="round"/>
</g>
</g>
</svg>
