<svg width="36" height="36" viewBox="0 0 36 36" fill="none" xmlns="http://www.w3.org/2000/svg">
<g id="octicon:law-24">
<path id="Vector" d="M19.125 4.125V6.75H22.0875C22.614 6.75 23.1285 6.909 23.5635 7.2045L26.109 8.9355C26.172 8.9775 26.242 8.999 26.319 9H32.472C32.7704 9 33.0565 9.11853 33.2675 9.3295C33.4785 9.54048 33.597 9.82663 33.597 10.125C33.597 10.4234 33.4785 10.7095 33.2675 10.9205C33.0565 11.1315 32.7704 11.25 32.472 11.25H30.105L35.154 22.77C35.255 23.0003 35.2759 23.2579 35.2134 23.5015C35.1508 23.7451 35.0085 23.9608 34.809 24.114C34.659 24.225 34.504 24.328 34.344 24.423C33.9643 24.6514 33.5682 24.8514 33.159 25.0215C31.8022 25.5889 30.3456 25.8791 28.875 25.875C27.4048 25.8814 25.9483 25.5916 24.5925 25.023C24.1833 24.8525 23.7872 24.6519 23.4075 24.423C23.2479 24.3315 23.0942 24.2303 22.947 24.12L22.9395 24.114C22.74 23.9608 22.5977 23.7451 22.5351 23.5015C22.4726 23.2579 22.4935 23.0003 22.5945 22.77L27.6465 11.25H26.3175C25.791 11.25 25.2765 11.091 24.8415 10.7955L22.296 9.0645C22.234 9.02252 22.1609 9.00005 22.086 9H19.125V30.75H25.8555C26.1539 30.75 26.44 30.8685 26.651 31.0795C26.862 31.2905 26.9805 31.5766 26.9805 31.875C26.9805 32.1734 26.862 32.4595 26.651 32.6705C26.44 32.8815 26.1539 33 25.8555 33H10.1445C9.84613 33 9.55998 32.8815 9.349 32.6705C9.13802 32.4595 9.0195 32.1734 9.0195 31.875C9.0195 31.5766 9.13802 31.2905 9.349 31.0795C9.55998 30.8685 9.84613 30.75 10.1445 30.75H16.875V9H13.9125C13.8376 9.00005 13.7645 9.02252 13.7025 9.0645L11.1585 10.7955C10.7235 11.091 10.209 11.25 9.6825 11.25H8.3535L13.4055 22.77C13.5033 22.9938 13.5256 23.2433 13.469 23.4809C13.4125 23.7185 13.2801 23.9313 13.092 24.087C12.972 24.1845 12.852 24.276 12.627 24.4215C12.2479 24.6675 11.8507 24.8846 11.439 25.071C10.0846 25.6875 8.61313 26.0047 7.125 26.001C5.63686 26.0047 4.16542 25.6875 2.811 25.071C2.39925 24.8846 2.00213 24.6675 1.623 24.4215C1.46333 24.3184 1.30866 24.2078 1.1595 24.09C0.97247 23.9328 0.840902 23.7196 0.784189 23.482C0.727475 23.2443 0.748617 22.9947 0.844498 22.77L5.895 11.25H3.5295C3.23113 11.25 2.94498 11.1315 2.734 10.9205C2.52302 10.7095 2.4045 10.4234 2.4045 10.125C2.4045 9.82663 2.52302 9.54048 2.734 9.3295C2.94498 9.11853 3.23113 9 3.5295 9H9.6825C9.7585 9 9.829 8.9785 9.894 8.9355L12.4365 7.2045C12.8715 6.9075 13.3875 6.75 13.914 6.75H16.875V4.125C16.875 3.82663 16.9935 3.54048 17.2045 3.3295C17.4155 3.11853 17.7016 3 18 3C18.2984 3 18.5845 3.11853 18.7955 3.3295C19.0065 3.54048 19.125 3.82663 19.125 4.125ZM3.2895 22.797C4.46975 23.4263 5.78746 23.7535 7.125 23.7495C8.46253 23.7535 9.78025 23.4263 10.9605 22.797L7.125 14.052L3.2895 22.797ZM25.0545 22.761C25.1775 22.821 25.315 22.884 25.467 22.95C26.262 23.2845 27.4245 23.625 28.875 23.625C30.1973 23.6285 31.5034 23.3332 32.6955 22.761L28.875 14.0505L25.0545 22.761Z" fill="white"/>
</g>
</svg>
