<svg width="36" height="36" viewBox="0 0 36 36" fill="none" xmlns="http://www.w3.org/2000/svg">
<g id="cloud-lightning" clip-path="url(#clip0_2533_20016)">
<path id="Vector" d="M28.5 25.35C30.3227 24.9798 31.9429 23.9457 33.046 22.4482C34.1491 20.9507 34.6565 19.0967 34.4696 17.2462C34.2826 15.3957 33.4148 13.6807 32.0345 12.434C30.6542 11.1874 28.8599 10.4981 27 10.5H25.11C24.613 8.57594 23.646 6.80545 22.2958 5.34744C20.9456 3.88943 19.2545 2.78956 17.3742 2.14656C15.494 1.50355 13.4835 1.33756 11.5232 1.66347C9.56294 1.98939 7.7143 2.79701 6.14325 4.01382C4.5722 5.23064 3.32793 6.81856 2.52214 8.63503C1.71636 10.4515 1.37428 12.4396 1.52662 14.4209C1.67897 16.4023 2.32096 18.3147 3.39497 19.9867C4.46899 21.6586 5.94139 23.0376 7.67999 24" stroke="#fff" stroke-width="3" stroke-linecap="round" stroke-linejoin="round"/>
<path id="Vector_2" d="M19.5 16.5L13.5 25.5H22.5L16.5 34.5" stroke="#fff" stroke-width="3" stroke-linecap="round" stroke-linejoin="round"/>
</g>
<defs>
<clipPath id="clip0_2533_20016">
<rect width="36" height="36" fill="white"/>
</clipPath>
</defs>
</svg>
