<svg width="24" height="24" viewBox="0 0 24 24" fill="none" xmlns="http://www.w3.org/2000/svg">
<g id="Social/Telegram">
<path id="Vector" d="M5.26576 11.2746L8.72139 12.5674L10.0592 16.8799C10.0791 16.9435 10.1143 17.0012 10.1618 17.048C10.2092 17.0949 10.2673 17.1294 10.3312 17.1485C10.395 17.1676 10.4625 17.1709 10.5279 17.1579C10.5933 17.1449 10.6544 17.116 10.7061 17.0739L12.6326 15.5008C12.7307 15.4203 12.8527 15.3747 12.9794 15.3712C13.1062 15.3676 13.2306 15.4063 13.3329 15.4811L16.8083 18.0086C16.8632 18.0488 16.9273 18.0746 16.9948 18.0835C17.0623 18.0924 17.1309 18.0842 17.1944 18.0596C17.2579 18.0351 17.3142 17.995 17.3581 17.943C17.402 17.891 17.4322 17.8288 17.4458 17.7621L19.992 5.49017C20.0064 5.41853 20.0013 5.34436 19.9773 5.27533C19.9534 5.20631 19.9114 5.14495 19.8557 5.09761C19.8001 5.05027 19.7328 5.01868 19.6608 5.00611C19.5888 4.99354 19.5148 5.00044 19.4464 5.02611L5.26107 10.5105C5.18379 10.5404 5.11744 10.5932 5.07082 10.6617C5.02419 10.7302 4.9995 10.8113 5.00001 10.8941C5.00052 10.977 5.0262 11.0578 5.07367 11.1257C5.12113 11.1937 5.18812 11.2456 5.26576 11.2746ZM9.84357 11.8802L16.5992 7.70924C16.7201 7.63518 16.8448 7.79924 16.7398 7.89674L11.1664 13.0905C10.9704 13.2726 10.8438 13.5172 10.8083 13.7824L10.6179 15.1933C10.5926 15.3808 10.3292 15.3996 10.2767 15.2186L9.54545 12.6461C9.50518 12.5034 9.5125 12.3514 9.56629 12.2132C9.62008 12.075 9.71741 11.9581 9.84357 11.8802Z" fill="#666666"/>
</g>
</svg>
