<svg width="24" height="24" viewBox="0 0 24 24" fill="none" xmlns="http://www.w3.org/2000/svg">
<g id="Social/Twitter">
<path id="Vector" d="M20 6.53889C19.401 6.80449 18.7656 6.97877 18.115 7.05589C18.7999 6.64557 19.3126 6.00066 19.558 5.24089C18.9128 5.62284 18.2075 5.89234 17.472 6.03789C16.9777 5.51052 16.3232 5.16102 15.61 5.04361C14.8968 4.92619 14.1647 5.04744 13.5275 5.38852C12.8902 5.72961 12.3833 6.27147 12.0854 6.93004C11.7875 7.58862 11.7153 8.32709 11.88 9.03089C10.5749 8.96548 9.29818 8.6263 8.13271 8.03538C6.96723 7.44446 5.93907 6.61501 5.115 5.60089C4.82254 6.10152 4.66892 6.6711 4.67 7.25089C4.67 8.39089 5.25 9.39489 6.13 9.98289C5.60898 9.96553 5.09958 9.8243 4.644 9.57089V9.61189C4.64406 10.3698 4.90612 11.1044 5.38579 11.6912C5.86546 12.2781 6.53324 12.681 7.276 12.8319C6.9943 12.908 6.7038 12.9467 6.412 12.9469C6.20449 12.947 5.99749 12.9265 5.794 12.8859C6.00329 13.5381 6.41129 14.1086 6.96088 14.5174C7.51047 14.9262 8.17415 15.153 8.859 15.1659C7.69626 16.0777 6.26061 16.5719 4.783 16.5689C4.518 16.5689 4.257 16.5529 4 16.5239C5.50006 17.4898 7.24685 18.0026 9.031 18.0009C15.069 18.0009 18.369 12.9989 18.369 8.66089L18.359 8.23489C19.0041 7.77349 19.5601 7.19885 20 6.53889Z" fill="#666666"/>
</g>
</svg>
