<svg width="20" height="20" viewBox="0 0 20 20" fill="none" xmlns="http://www.w3.org/2000/svg">
<g id="eye">
<path id="Vector" d="M0.833984 10C0.833984 10 4.16732 3.33337 10.0007 3.33337C15.834 3.33337 19.1673 10 19.1673 10C19.1673 10 15.834 16.6667 10.0007 16.6667C4.16732 16.6667 0.833984 10 0.833984 10Z" stroke="url(#paint0_linear_2899_43231)" stroke-width="1.5" stroke-linecap="round" stroke-linejoin="round"/>
<path id="Vector_2" d="M10 12.5C11.3807 12.5 12.5 11.3807 12.5 10C12.5 8.61929 11.3807 7.5 10 7.5C8.61929 7.5 7.5 8.61929 7.5 10C7.5 11.3807 8.61929 12.5 10 12.5Z" stroke="url(#paint1_linear_2899_43231)" stroke-width="1.5" stroke-linecap="round" stroke-linejoin="round"/>
</g>
<defs>
<linearGradient id="paint0_linear_2899_43231" x1="9.06595" y1="2.37041" x2="-12.2906" y2="18.9097" gradientUnits="userSpaceOnUse">
<stop stop-color="#29817A"/>
<stop offset="1" stop-color="#0D1457"/>
</linearGradient>
<linearGradient id="paint1_linear_2899_43231" x1="9.74508" y1="7.13889" x2="2.67127" y2="11.123" gradientUnits="userSpaceOnUse">
<stop stop-color="#29817A"/>
<stop offset="1" stop-color="#0D1457"/>
</linearGradient>
</defs>
</svg>
