<svg width="24" height="24" viewBox="0 0 24 24" fill="none" xmlns="http://www.w3.org/2000/svg">
<g id="Social/VK">
<path id="Vector" d="M18.4909 13.1525C19.0883 13.7971 19.7182 14.4023 20.2537 15.111C20.49 15.426 20.715 15.7511 20.886 16.1168C21.1289 16.6365 20.9085 17.208 20.4866 17.2395L17.8654 17.2372C17.1882 17.3002 16.6494 16.9987 16.1949 16.488C15.8326 16.0796 15.4963 15.6443 15.1464 15.2235C15.0094 15.0494 14.8506 14.8937 14.6739 14.7601C14.3173 14.5036 14.0068 14.5812 13.8021 14.994C13.5928 15.4137 13.5456 15.8783 13.5253 16.3451C13.4972 17.0269 13.3116 17.2068 12.6906 17.2372C11.3654 17.307 10.1077 17.0853 8.93888 16.3462C7.90842 15.696 7.1097 14.7769 6.41335 13.7363C5.06002 11.7103 4.02394 9.484 3.09134 7.19471C2.88098 6.67948 3.03397 6.40274 3.55033 6.39374C4.40557 6.37555 5.26109 6.3748 6.11636 6.39149C6.46397 6.39711 6.69346 6.61648 6.82846 6.97984C7.29082 8.23642 7.85667 9.43225 8.56765 10.5415C8.75776 10.8362 8.95013 11.1309 9.22575 11.3391C9.52949 11.5685 9.76123 11.4921 9.9041 11.1186C9.99409 10.8812 10.0346 10.6258 10.0548 10.3716C10.1223 9.4975 10.1313 8.62453 10.0132 7.75381C9.9401 7.21046 9.66223 6.85834 9.17175 6.75597C8.92088 6.7031 8.95801 6.5996 9.0795 6.44211C9.29099 6.16987 9.48899 6 9.88497 6H12.8481C13.315 6.10125 13.4185 6.33299 13.4826 6.85159L13.4848 10.4875C13.4792 10.6877 13.5748 11.2839 13.9033 11.4167C14.1643 11.5112 14.3376 11.2794 14.4951 11.0961C15.2038 10.2636 15.71 9.28151 16.1634 8.26342C16.3636 7.81568 16.5369 7.3522 16.7034 6.88647C16.8271 6.54223 17.0217 6.37236 17.3738 6.38024L20.2256 6.38361C20.31 6.38361 20.3955 6.38361 20.4776 6.39936C20.9591 6.48936 21.0907 6.71885 20.9422 7.23746C20.7082 8.0508 20.2526 8.72803 19.8082 9.40863C19.3324 10.1354 18.8239 10.8373 18.3514 11.5685C17.9183 12.2368 17.9532 12.5731 18.4909 13.1525Z" fill="#666666"/>
</g>
</svg>
