<svg width="21" height="20" viewBox="0 0 21 20" fill="none" xmlns="http://www.w3.org/2000/svg">
<g id="globe-network-1294-svgrepo-com 1">
<g id="Page-1">
<g id="Dribbble-Light-Preview">
<g id="icons">
<path id="globe_network-[#1294]" fill-rule="evenodd" clip-rule="evenodd" d="M12.1545 15.8531C13.1474 14.2433 13.7245 12.453 13.8767 10.6289H16.5611C16.2497 13.1107 14.4899 15.1459 12.1545 15.8531ZM10.3461 15.7283C9.21685 14.2001 8.55339 12.4365 8.37772 10.6289H12.3075C12.1341 12.4357 11.473 14.1993 10.3461 15.7283ZM4.12255 10.6289H6.80773C6.96144 12.4537 7.54175 14.2456 8.53771 15.8554C6.19838 15.1506 4.43467 13.1138 4.12255 10.6289ZM8.21539 3.94428C7.34334 5.53914 6.87125 7.29004 6.78734 9.05914H4.12255C4.41977 6.69039 6.0384 4.73308 8.21539 3.94428ZM10.3163 3.56596C10.3234 3.55654 10.3304 3.54704 10.3375 3.53762C10.3445 3.54704 10.3508 3.55654 10.3579 3.56596C11.5617 5.20556 12.2188 7.11736 12.3279 9.05914H8.35578C8.46243 7.11814 9.11647 5.20713 10.3163 3.56596ZM16.5611 9.05914H13.8963C13.81 7.28846 13.3348 5.53669 12.4588 3.94026C14.6413 4.72749 16.2638 6.68647 16.5611 9.05914ZM11.0127 2.02911C6.37562 1.6351 2.5 5.29265 2.5 9.84412C2.5 14.1075 5.89959 17.5609 10.1148 17.681C14.5668 17.8097 18.1844 14.23 18.1844 9.84412C18.1844 5.79575 15.1009 2.37838 11.0127 2.02911Z" fill="url(#paint0_linear_3266_70479)"/>
</g>
</g>
</g>
</g>
<defs>
<linearGradient id="paint0_linear_3266_70479" x1="9.54255" y1="0.867243" x2="-12.6471" y2="13.3651" gradientUnits="userSpaceOnUse">
<stop stop-color="#29817A"/>
<stop offset="0.654" stop-color="#0D1457"/>
</linearGradient>
</defs>
</svg>
