<svg width="20" height="20" viewBox="0 0 20 20" fill="none" xmlns="http://www.w3.org/2000/svg">
<g id="streamline:web-solid">
<path id="Vector" fill-rule="evenodd" clip-rule="evenodd" d="M7.4815 1.35567C5.73495 1.86235 4.1823 2.88152 3.02609 4.28022C1.86989 5.67891 1.16382 7.39218 1 9.19652H5.13081C5.3716 6.4508 6.17095 3.78261 7.48021 1.35438L7.4815 1.35567ZM5.13081 10.8035H1C1.16348 12.6079 1.86924 14.3214 3.02522 15.7203C4.1812 17.1192 5.73371 18.1387 7.48021 18.6456C6.17095 16.2174 5.3716 13.5492 5.13081 10.8035ZM9.55077 18.9889C7.98569 16.5168 7.02614 13.7129 6.74957 10.8035H13.2491C12.9726 13.7129 12.013 16.5168 10.4479 18.9889C10.1491 19.0037 9.84964 19.0037 9.55077 18.9889ZM12.5198 18.6444C14.2661 18.1375 15.8185 17.1182 16.9744 15.7195C18.1304 14.3208 18.8363 12.6077 19 10.8035H14.8692C14.6284 13.5492 13.829 16.2174 12.5198 18.6456V18.6444ZM14.8692 9.19652H19C18.8365 7.39212 18.1308 5.67868 16.9748 4.27975C15.8188 2.88083 14.2663 1.86137 12.5198 1.35438C13.829 3.78261 14.6284 6.4508 14.8692 9.19652ZM9.55077 1.01113C9.85007 0.996291 10.1499 0.996291 10.4492 1.01113C12.0139 3.48331 12.973 6.28721 13.2491 9.19652H6.75086C7.03098 6.26922 7.99269 3.46276 9.55077 1.01113Z" fill="url(#paint0_linear_3052_55370)"/>
</g>
<defs>
<linearGradient id="paint0_linear_3052_55370" x1="9.08229" y1="-0.3" x2="-16.3834" y2="14.0429" gradientUnits="userSpaceOnUse">
<stop stop-color="#29817A"/>
<stop offset="1" stop-color="#0D1457"/>
</linearGradient>
</defs>
</svg>
