<svg width="24" height="24" fill="none" xmlns="http://www.w3.org/2000/svg"><path d="M8.37 3.075S8.088 2.4 7.658 2.4c-.424 0-.644.2-.791.338-.147.138-2.604 2.202-2.604 2.202s-.715.637-.66 1.837c.046 1.2.276 2.908 1.468 5.288 1.183 2.373 4.145 6 6.016 7.275 0 0 1.734 1.36 3.348 1.913.469.15 1.406.347 1.625.347.222 0 .614 0 1.064-.336.457-.34 3.024-2.45 3.024-2.45s.629-.58-.101-1.255c-.733-.674-2.96-2.175-3.437-2.57-.477-.4-1.156-.223-1.45.048-.293.273-.816.723-.88.78-.096.074-.358.318-.652.197-.374-.151-1.907-1.002-3.329-2.99-1.413-1.987-1.568-2.636-1.78-3.338a.499.499 0 01.193-.573c.212-.15.991-.814.991-.814s.505-.51.294-1.109c-.21-.6-1.627-4.115-1.627-4.115z" fill="url(#paint0_linear_2533_20147)"/><defs><linearGradient id="paint0_linear_2533_20147" x1="11.143" y1="1.013" x2="-14.046" y2="13.427" gradientUnits="userSpaceOnUse"><stop stop-color="#29817A"/><stop offset="1" stop-color="#0D1457"/></linearGradient></defs></svg>