<svg width="24" height="24" fill="none" xmlns="http://www.w3.org/2000/svg"><path d="M8.11 2.738S7.81 2 7.347 2c-.453 0-.69.219-.847.37-.157.15-2.79 2.408-2.79 2.408s-.765.698-.707 2.01c.05 1.313.296 3.18 1.573 5.783 1.268 2.596 4.44 6.563 6.446 7.958 0 0 1.858 1.487 3.587 2.091.502.165 1.507.38 1.74.38.239 0 .659 0 1.14-.367.49-.372 3.242-2.68 3.242-2.68s.673-.635-.11-1.372c-.785-.738-3.17-2.38-3.681-2.81-.512-.439-1.24-.246-1.554.05-.314.3-.875.791-.944.853-.102.082-.383.349-.697.216-.401-.165-2.044-1.096-3.567-3.27-1.514-2.173-1.68-2.883-1.907-3.65a.557.557 0 01-.001-.351.532.532 0 01.207-.277c.227-.164 1.062-.89 1.062-.89s.54-.557.315-1.213C9.628 6.584 8.11 2.738 8.11 2.738z" fill="#FAB130"/></svg>