<svg width="48" height="48" fill="none" xmlns="http://www.w3.org/2000/svg"><path d="M24.372 29.104c-1.234 0-1.954 1.174-1.954 2.746 0 1.582.742 2.7 1.966 2.7 1.234 0 1.942-1.176 1.942-2.748 0-1.452-.696-2.698-1.954-2.698z" fill="url(#paint0_linear_2781_34184)"/><path d="M28 4H12a4 4 0 00-4 4v32a4 4 0 004 4h24a4 4 0 004-4V16L28 4zm-9.69 30.908c-.852.708-2.146 1.042-3.728 1.042-.95 0-1.62-.06-2.076-.12v-7.942a16.01 16.01 0 012.47-.166c1.536 0 2.532.276 3.31.864.84.624 1.368 1.62 1.368 3.044 0 1.55-.564 2.618-1.344 3.278zM24.29 36c-2.4 0-3.802-1.812-3.802-4.116 0-2.422 1.546-4.232 3.934-4.232 2.482 0 3.838 1.858 3.838 4.09-.002 2.65-1.61 4.258-3.97 4.258zm9.31-1.524c.55 0 1.162-.122 1.524-.264l.276 1.426c-.336.168-1.092.348-2.074.348-2.794 0-4.234-1.738-4.234-4.042 0-2.758 1.966-4.292 4.414-4.292.948 0 1.666.192 1.99.36l-.372 1.452a4 4 0 00-1.536-.3c-1.452 0-2.58.876-2.58 2.676 0 1.618.96 2.636 2.592 2.636zM28 18h-2V8l10 10h-8z" fill="url(#paint1_linear_2781_34184)"/><path d="M15.168 29.126c-.406 0-.67.036-.826.072v5.29c.156.036.408.036.634.036 1.656.012 2.734-.898 2.734-2.83.012-1.68-.97-2.568-2.542-2.568z" fill="url(#paint2_linear_2781_34184)"/><defs><linearGradient id="paint0_linear_2781_34184" x1="24.173" y1="28.711" x2="17.913" y2="31.241" gradientUnits="userSpaceOnUse"><stop stop-color="#29817A"/><stop offset="1" stop-color="#0D1457"/></linearGradient><linearGradient id="paint1_linear_2781_34184" x1="22.369" y1="1.111" x2="-27.201" y2="23.446" gradientUnits="userSpaceOnUse"><stop stop-color="#29817A"/><stop offset="1" stop-color="#0D1457"/></linearGradient><linearGradient id="paint2_linear_2781_34184" x1="15.854" y1="28.736" x2="10.267" y2="30.699" gradientUnits="userSpaceOnUse"><stop stop-color="#29817A"/><stop offset="1" stop-color="#0D1457"/></linearGradient></defs></svg>