<svg width="110" height="12" fill="none" xmlns="http://www.w3.org/2000/svg"><g clip-path="url(#clip0_2627_27075)"><path fill-rule="evenodd" clip-rule="evenodd" d="M27.805 1.88l-3.99 8.683h.66l1.08-2.415h5.053l1.087 2.412h.7l-3.99-8.684-.6.003zm-1.973 5.683l2.267-4.984 2.25 4.984h-4.517zm18.315-3.18a2.3 2.3 0 00-.647-1.622c-.513-.515-1.354-.84-2.406-.84H37.51v8.6h.636V6.957h2.797l2.722 3.563h.808L41.65 6.845c1.44-.196 2.497-1.02 2.497-2.456v-.006zm-6.008 1.992V2.52h2.92c1.55 0 2.455.725 2.455 1.88 0 1.265-1.063 1.99-2.497 1.99l-2.878-.016zm18.365-4.457h-.865L50.19 7.563V1.918h-.635v8.602h.635V8.333l2.126-2.171 3.516 4.35h.832L52.78 5.708l3.724-3.79zm16.44.603h2.98v8.01h.636v-8.01h2.977v-.603h-6.593v.603zm11.702 8.01h.636V1.919h-.636v8.614zm12.244-1.12l-5.9-7.493h-.6v8.602h.611V2.876l6.022 7.645h.477V1.918h-.61v7.493zm9.751-3.361v.56h2.775v2.4a4.235 4.235 0 01-2.636.956c-2.22 0-3.547-1.61-3.547-3.773 0-2.042 1.407-3.76 3.417-3.76a3.694 3.694 0 012.658 1.004l.402-.465a4.299 4.299 0 00-3.024-1.101c-2.47 0-4.091 2.067-4.091 4.322 0 2.375 1.549 4.322 4.163 4.322a4.949 4.949 0 003.252-1.255V6.044l-3.369.006zM61.752 2.535h6.105v-.62h-6.105v.62zm4.238 3.397h-4.238v.614h4.238v-.614zm-4.238 4.588h6.105v-.613h-6.105v.614zM15.014 0L12.19 4.885 9.38 0H5.97v7.258a22.329 22.329 0 003.408 2.504v-3.6l2.659 4.482h.305l2.672-4.482V12h3.392V0h-3.392zM4.265 5.532V0H.857a19.31 19.31 0 003.408 5.532zM.857 6.963v5.042h3.408V9.336A26.104 26.104 0 01.857 6.963zm5.113 3.283V12h3.408v-.378a26.192 26.192 0 01-3.408-1.376z" fill="#B1B1B1"/></g><defs><clipPath id="clip0_2627_27075"><path fill="#fff" transform="translate(.857)" d="M0 0h109.143v12H0z"/></clipPath></defs></svg>