<svg width="20" height="20" fill="none" xmlns="http://www.w3.org/2000/svg"><path d="M10.001 7.292a2.708 2.708 0 100 5.416 2.708 2.708 0 000-5.416z" fill="url(#paint0_linear_3266_71093)"/><path fill-rule="evenodd" clip-rule="evenodd" d="M5.642 2.568c2.896-.32 5.82-.32 8.716 0a3.45 3.45 0 013.044 3.011 38.092 38.092 0 010 8.842 3.451 3.451 0 01-3.043 3.012c-2.897.32-5.82.32-8.717 0a3.451 3.451 0 01-3.045-3.011 38.084 38.084 0 010-8.843 3.45 3.45 0 013.045-3.01zM14.166 5a.833.833 0 100 1.666.833.833 0 000-1.666zm-8.124 5a3.958 3.958 0 117.916 0 3.958 3.958 0 01-7.916 0z" fill="url(#paint1_linear_3266_71093)"/><defs><linearGradient id="paint0_linear_3266_71093" x1="9.725" y1="6.901" x2="2.062" y2="11.217" gradientUnits="userSpaceOnUse"><stop stop-color="#29817A"/><stop offset=".654" stop-color="#0D1457"/></linearGradient><linearGradient id="paint1_linear_3266_71093" x1="9.219" y1="1.219" x2="-12.473" y2="13.416" gradientUnits="userSpaceOnUse"><stop stop-color="#29817A"/><stop offset=".654" stop-color="#0D1457"/></linearGradient></defs></svg>