<svg width="16" height="16" fill="none" xmlns="http://www.w3.org/2000/svg"><path d="M4.556 7.3L7.402 1c.566 0 1.108.221 1.508.615.4.394.625.928.625 1.485v2.8h4.026a1.442 1.442 0 011.09.481 1.394 1.394 0 01.333 1.129l-.982 6.3a1.394 1.394 0 01-.485.857 1.437 1.437 0 01-.937.333H4.556m0-7.7V15m0-7.7H2.423c-.378 0-.74.147-1.006.41A1.389 1.389 0 001 8.7v4.9c0 .371.15.727.417.99.266.262.628.41 1.006.41h2.133" stroke="url(#paint0_linear_2899_43236)" stroke-width="1.5" stroke-linecap="round" stroke-linejoin="round"/><defs><linearGradient id="paint0_linear_2899_43236" x1="7.286" y1="-.011" x2="-12.52" y2="11.145" gradientUnits="userSpaceOnUse"><stop stop-color="#29817A"/><stop offset="1" stop-color="#0D1457"/></linearGradient></defs></svg>