<svg width="20" height="20" fill="none" xmlns="http://www.w3.org/2000/svg"><path d="M18.333 6.28v7.887a2.5 2.5 0 01-2.353 2.496l-.147.004H4.167a2.5 2.5 0 01-2.496-2.354l-.004-.146V6.279l7.87 5.248.097.055a.834.834 0 00.732 0l.097-.055 7.87-5.248z" fill="url(#paint0_linear_2842_36115)"/><path d="M15.833 3.333c.9 0 1.69.475 2.13 1.19L10 9.83 2.038 4.523a2.5 2.5 0 011.961-1.184l.168-.006h11.666z" fill="url(#paint1_linear_2842_36115)"/><defs><linearGradient id="paint0_linear_2842_36115" x1="9.15" y1="5.529" x2="-7.947" y2="20.979" gradientUnits="userSpaceOnUse"><stop stop-color="#29817A"/><stop offset="1" stop-color="#0D1457"/></linearGradient><linearGradient id="paint1_linear_2842_36115" x1="9.188" y1="2.864" x2="-1.026" y2="16.964" gradientUnits="userSpaceOnUse"><stop stop-color="#29817A"/><stop offset="1" stop-color="#0D1457"/></linearGradient></defs></svg>