<svg width="20" height="20" fill="none" xmlns="http://www.w3.org/2000/svg"><path d="M10.5 1C6.91 1 4 4.022 4 7.75c0 1.468.463 2.815 1.234 3.918.013.026.016.056.031.081L9.6 18.5c.2.313.54.501.901.501.362 0 .7-.188.901-.5l4.334-6.75c.016-.026.018-.056.031-.082A6.817 6.817 0 0017 7.75C17 4.022 14.09 1 10.5 1zm0 9c-1.197 0-2.167-1.007-2.167-2.25S9.303 5.5 10.5 5.5c1.197 0 2.167 1.007 2.167 2.25S11.697 10 10.5 10z" fill="url(#paint0_linear_3266_71074)"/><defs><linearGradient id="paint0_linear_3266_71074" x1="9.837" y1="-.3" x2="-10.95" y2="8.156" gradientUnits="userSpaceOnUse"><stop stop-color="#29817A"/><stop offset=".654" stop-color="#0D1457"/></linearGradient></defs></svg>