<svg width="20" height="20" fill="none" xmlns="http://www.w3.org/2000/svg"><path d="M5.556 18.973h8.89c1.732 0 2.594-.879 2.594-2.62v-7.6h-6.06c-1.072 0-1.574-.51-1.574-1.582V1.027h-3.85c-1.724 0-2.595.887-2.595 2.628v12.698c0 1.75.87 2.62 2.595 2.62zm5.45-11.367h5.942c-.058-.343-.301-.678-.695-1.088l-4.62-4.696c-.385-.402-.737-.644-1.088-.703v6.035c0 .301.159.452.46.452zm-4.228 4.772c-.343 0-.586-.243-.586-.57 0-.326.243-.569.586-.569h6.453c.335 0 .595.243.595.569 0 .327-.26.57-.594.57H6.778zm0 3.188c-.343 0-.586-.242-.586-.569 0-.326.243-.57.586-.57h6.453c.335 0 .595.244.595.57 0 .327-.26.57-.594.57H6.778z" fill="url(#paint0_linear_3093_60521)"/><defs><linearGradient id="paint0_linear_3093_60521" x1="9.283" y1="-.269" x2="-12.669" y2="9.43" gradientUnits="userSpaceOnUse"><stop stop-color="#29817A"/><stop offset="1" stop-color="#0D1457"/></linearGradient></defs></svg>