<svg width="36" height="36" fill="none" xmlns="http://www.w3.org/2000/svg"><path d="M19.125 4.125V6.75h2.962a2.63 2.63 0 011.477.455l2.545 1.73a.38.38 0 00.21.065h6.153a1.125 1.125 0 010 2.25h-2.367l5.049 11.52a1.125 1.125 0 01-.345 1.344c-.15.111-.305.214-.465.309-.38.228-.776.428-1.185.599a11.024 11.024 0 01-4.284.853 10.95 10.95 0 01-4.282-.852 9 9 0 01-1.186-.6 4.502 4.502 0 01-.46-.303l-.008-.006a1.125 1.125 0 01-.345-1.344l5.052-11.52h-1.329a2.628 2.628 0 01-1.476-.454l-2.545-1.731a.375.375 0 00-.21-.065h-2.961v21.75h6.73a1.125 1.125 0 110 2.25h-15.71a1.125 1.125 0 110-2.25h6.73V9h-2.963a.375.375 0 00-.21.065l-2.543 1.73a2.63 2.63 0 01-1.477.455H8.353l5.053 11.52a1.124 1.124 0 01-.314 1.317 4.79 4.79 0 01-.465.335c-.38.245-.776.463-1.188.649a10.351 10.351 0 01-4.314.93 10.351 10.351 0 01-4.314-.93 9.007 9.007 0 01-1.188-.65 5.993 5.993 0 01-.464-.331 1.14 1.14 0 01-.315-1.32l5.051-11.52H3.53a1.125 1.125 0 110-2.25h6.152a.376.376 0 00.212-.065l2.543-1.73a2.621 2.621 0 011.477-.455h2.961V4.125a1.125 1.125 0 112.25 0zM3.29 22.797a8.1 8.1 0 003.835.953 8.1 8.1 0 003.835-.953l-3.835-8.745-3.836 8.745zm21.765-.036c.122.06.26.123.412.189a8.784 8.784 0 003.408.675 8.775 8.775 0 003.82-.864l-3.82-8.71-3.82 8.71z" fill="#fff"/></svg>