<svg width="36" height="36" fill="none" xmlns="http://www.w3.org/2000/svg"><path d="M27.044 27.044L34 34M12.435 11.74v11.13m8.348-11.13v11.13M13.13 11.74a3.478 3.478 0 016.957 0m-3.478 19.477C8.54 31.217 2 24.677 2 16.61 2 8.54 8.54 2 16.609 2c8.068 0 14.608 6.54 14.608 14.609 0 8.068-6.54 14.608-14.608 14.608zm8.347-8.347H8.261v-.348l.178-1.072a25.182 25.182 0 000-8.292l-.178-1.071v-.348h16.695v.348l-.178 1.071a25.182 25.182 0 000 8.292l.178 1.072v.348z" stroke="#fff" stroke-width="2.5"/></svg>