<svg width="36" height="36" fill="none" xmlns="http://www.w3.org/2000/svg"><g stroke="#fff" stroke-width="2" stroke-linecap="round" stroke-linejoin="round"><path d="M22.5 3.75V6c0 2.121 0 3.181.66 3.84.657.66 1.718.66 3.84.66h2.25"/><path d="M12 16.5h12M12 21h12m-12 4.5h6.255M6 24V12c0-4.242 0-6.364 1.319-7.681C8.636 3 10.758 3 15 3h6.258c.612 0 .92 0 1.195.114s.492.33.926.765l5.742 5.742c.435.435.651.651.765.927.114.274.114.582.114 1.194V24c0 4.242 0 6.364-1.319 7.681C27.364 33 25.242 33 21 33h-6c-4.242 0-6.364 0-7.681-1.319C6 30.364 6 28.242 6 24z"/></g></svg>