<svg width="36" height="36" fill="none" xmlns="http://www.w3.org/2000/svg"><g stroke="#fff" stroke-width="2"><path d="M33 14.53A15.43 15.43 0 0027.843 3M6 24.843A15.45 15.45 0 0017.53 30c6.235 0 11.607-3.687 14.055-9" stroke-linecap="round"/><path d="M10.5 6.83c.877.827 2.685 3.094 2.896 5.525.197 2.273 1.644 4.12 3.854 4.145.849.009 1.709-.627 1.706-1.508 0-.273-.046-.55-.111-.807a1.71 1.71 0 01.093-1.184c.685-1.467 2.035-1.862 3.105-2.659.474-.354.905-.726 1.098-1.026.525-.829 1.053-2.487.789-3.316m4.57 10.5c-.33.93-.563 3.375-4.282 3.414 0 0-3.293 0-4.282 1.861-.79 1.49-.33 3.106 0 3.725"/><path d="M18 33v-3m0 3h-3m3 0h3M8.904 20.25a10.5 10.5 0 113.846 3.846" stroke-linecap="round"/></g></svg>