<svg width="24" height="24" fill="none" xmlns="http://www.w3.org/2000/svg"><path d="M20 6.539a6.554 6.554 0 01-1.885.517 3.297 3.297 0 001.443-1.815 6.616 6.616 0 01-2.086.797A3.283 3.283 0 0011.88 9.03 9.318 9.318 0 015.115 5.6 3.28 3.28 0 006.13 9.983a3.282 3.282 0 01-1.486-.412v.04a3.286 3.286 0 002.632 3.22 3.322 3.322 0 01-.864.116 3.15 3.15 0 01-.618-.061 3.284 3.284 0 003.065 2.28 6.584 6.584 0 01-4.076 1.403c-.265 0-.526-.016-.783-.045A9.277 9.277 0 009.031 18c6.038 0 9.338-5.002 9.338-9.34l-.01-.426A6.555 6.555 0 0020 6.539z" fill="#666"/></svg>