<svg width="24" height="24" fill="none" xmlns="http://www.w3.org/2000/svg"><path d="M18.49 13.152c.598.645 1.228 1.25 1.764 1.959.236.315.461.64.632 1.006.243.52.023 1.091-.4 1.122l-2.62-.002c-.678.063-1.217-.238-1.671-.749-.362-.408-.699-.844-1.049-1.264a2.585 2.585 0 00-.472-.464c-.357-.256-.667-.179-.872.234-.21.42-.256.884-.277 1.351-.028.682-.213.862-.834.892-1.326.07-2.583-.152-3.752-.89-1.03-.651-1.83-1.57-2.526-2.61-1.353-2.027-2.39-4.253-3.322-6.542-.21-.516-.057-.792.46-.801.855-.018 1.71-.02 2.565-.003.348.006.577.225.712.589.463 1.256 1.029 2.452 1.74 3.561.19.295.382.59.658.798.303.23.535.153.678-.22.09-.238.13-.493.15-.747.068-.874.077-1.747-.04-2.618-.074-.544-.352-.896-.842-.998-.251-.053-.214-.156-.093-.314.212-.272.41-.442.806-.442h2.963c.467.101.57.333.635.852l.002 3.636c-.006.2.09.796.418.929.261.094.435-.138.592-.32.709-.833 1.215-1.815 1.668-2.834.2-.447.374-.91.54-1.377.124-.344.319-.514.67-.506l2.853.004c.084 0 .17 0 .252.015.481.09.613.32.464.838-.234.814-.69 1.491-1.134 2.172-.476.726-.984 1.428-1.457 2.16-.433.668-.398 1.004.14 1.583z" fill="#666"/></svg>