<svg width="20" height="20" fill="none" xmlns="http://www.w3.org/2000/svg"><path d="M10.001 1.667A8.333 8.333 0 0118.335 10 8.333 8.333 0 015.81 17.204l-4.139 1.13 1.127-4.14a8.333 8.333 0 017.203-12.527zm-2.84 4.416l-.166.007a.833.833 0 00-.31.083c-.09.052-.173.116-.245.19-.1.094-.157.176-.218.255a2.282 2.282 0 00-.472 1.399c.002.408.109.805.275 1.177.341.752.902 1.548 1.642 2.285.178.178.353.356.542.522a7.875 7.875 0 003.2 1.705l.473.072c.154.009.309-.003.463-.01.243-.013.48-.079.695-.193a4.15 4.15 0 00.319-.183s.035-.024.104-.075a1.94 1.94 0 00.275-.24.971.971 0 00.175-.252c.065-.136.13-.395.157-.61.02-.166.014-.256.011-.312-.003-.089-.077-.181-.158-.22l-.485-.218s-.725-.316-1.168-.518a.417.417 0 00-.147-.034.4.4 0 00-.315.106c-.004-.002-.06.046-.662.776a.292.292 0 01-.307.108 1.179 1.179 0 01-.16-.055c-.103-.043-.139-.06-.21-.09a5 5 0 01-1.312-.835c-.105-.092-.202-.192-.302-.289a5.25 5.25 0 01-.85-1.057l-.05-.079a.833.833 0 01-.085-.17c-.031-.123.051-.221.051-.221s.203-.222.297-.342c.092-.117.17-.23.22-.31.097-.16.128-.322.077-.448a68.13 68.13 0 00-.724-1.7c-.049-.112-.195-.192-.327-.208a2.5 2.5 0 00-.47-.01l.167-.006z" fill="url(#paint0_linear_3095_62668)"/><defs><linearGradient id="paint0_linear_3095_62668" x1="9.152" y1=".463" x2="-14.428" y2="13.743" gradientUnits="userSpaceOnUse"><stop stop-color="#29817A"/><stop offset="1" stop-color="#0D1457"/></linearGradient></defs></svg>