<svg width="21" height="20" fill="none" xmlns="http://www.w3.org/2000/svg"><path fill-rule="evenodd" clip-rule="evenodd" d="M12.155 15.853c.992-1.61 1.57-3.4 1.722-5.224h2.684a6.29 6.29 0 01-4.406 5.224zm-1.809-.125a10.242 10.242 0 01-1.968-5.1h3.93a10.239 10.239 0 01-1.962 5.1zm-6.223-5.1h2.685a11.813 11.813 0 001.73 5.227 6.29 6.29 0 01-4.415-5.226zm4.092-6.684A11.814 11.814 0 006.787 9.06H4.123a6.287 6.287 0 014.092-5.115zm2.101-.378l.021-.028c.008.009.014.019.02.028a10.235 10.235 0 011.97 5.493h-3.97c.106-1.94.76-3.852 1.96-5.493zm6.245 5.493h-2.665A11.822 11.822 0 0012.46 3.94a6.286 6.286 0 014.102 5.12zm-5.548-7.03C6.376 1.635 2.5 5.293 2.5 9.844c0 4.264 3.4 7.717 7.615 7.837 4.452.129 8.07-3.451 8.07-7.837a7.836 7.836 0 00-7.172-7.815z" fill="#B1B1B1"/></svg>